<svg id="Layer_1" data-name="Layer 1" xmlns="http://www.w3.org/2000/svg" viewBox="0 0 1024 1024"><defs><style>.cls-1{fill:#fff;}</style></defs><title>Artboard 1</title><g id="katman_2" data-name="katman 2"><g id="katman_3" data-name="katman 3"><path class="cls-1" d="M976.79,296.75c-3.2-7-6.55-14-10.32-21a516.37,516.37,0,0,0-57.06-86.93C597.16,335.32,225.36,380.9,13.72,395.08a509.25,509.25,0,0,0,22.4,305.77c274.63-89.51,713.76-246.78,938.66-402.19Z"/><path class="cls-1" d="M275.77,58A509.86,509.86,0,0,0,53.92,283.29c127-39.14,411.88-136.54,583.58-267.66A510.59,510.59,0,0,0,275.77,58Z"/><path class="cls-1" d="M963,753.55a1533.14,1533.14,0,0,0-522.19,264.83h0v.56A511.75,511.75,0,0,0,963.58,753.81Z"/><path class="cls-1" d="M1019.61,448.14,258,955.26a4.31,4.31,0,0,0,0,.88,516.07,516.07,0,0,0,100.72,44.34h-.37C472.14,898.23,705,717.3,1008.42,629.23l2.16-.77A511.61,511.61,0,0,0,1020,448.4Z"/><path class="cls-1" d="M184.24,899.88C642.71,637.53,356,648.31,86,794.23l-.47.57a508.31,508.31,0,0,0,94.42,106.68A30.39,30.39,0,0,1,184.24,899.88Z"/></g></g></svg>